grf_walk
version=1
nRows=45
nColumns=19
inDegrees=no
endheader
time	ground_force_r_vx	ground_force_r_vy	ground_force_r_vz	ground_force_r_px	ground_force_r_py	ground_force_r_pz	ground_torque_r_x	ground_torque_r_y	ground_torque_r_z	ground_force_l_vx	ground_force_l_vy	ground_force_l_vz	ground_force_l_px	ground_force_l_py	ground_force_l_pz	ground_torque_l_x	ground_torque_l_y	ground_torque_l_z
1.1945	0	0	0	2.848825354154815	0	0.2687111247921993	0	0	0	-19.51196436892132	649.5948013500923	33.60044729832759	0.8914140953311637	0	-0.3236566819558632	0	-0.6790102607595637	0
1.195	0	0	0	2.852316719550401	0	0.2690337257296629	0	0	0	-19.30122119878585	649.5802986710961	33.56513460084555	0.8916082522419373	0	-0.323662576675184	0	-0.6908240726450373	0
1.1955	0	0	0	2.855779654436723	0	0.2693497769910772	0	0	0	-19.09029383078692	649.5702007729965	33.5315693577505	0.8918019493202702	0	-0.3236686860643794	0	-0.7026485215283583	0
1.196	0	0	0	2.859214132955628	0	0.2696592772860069	0	0	0	-18.87915952846967	649.5645261983793	33.49972607456598	0.891995182248047	0	-0.3236750081484124	0	-0.714485045926145	0
1.1965	0	0	0	2.862620129214884	0	0.2699622253151482	0	0	0	-18.66779602500966	649.5632949944718	33.46957851045453	0.8921879469672371	0	-0.323681540873634	0	-0.7263351331600144	0
1.197	0	0	0	2.865997617327776	0	0.2702586197704797	0	0	0	-18.45618154388896	649.5665287048807	33.44109972495824	0.8923802396842155	0	-0.3236882820512981	0	-0.7382003165393638	0
1.1975	0	0	0	2.86934657139244	0	0.2705484593445906	0	0	0	-18.24429481787737	649.5742503594896	33.41426212447932	0.8925720568384347	0	-0.32369522938906	0	-0.7500821722941681	0
1.198	0	0	0	2.872666965532356	0	0.2708317426926535	0	0	0	-18.03211510645612	649.5864844622856	33.38903750831241	0.8927633951373637	0	-0.3237023804130931	0	-0.7619823163139181	0
1.1985	0	0	0	2.875958773861012	0	0.2711084684926877	0	0	0	-17.81962221183757	649.603256976828	33.36539711411823	0.8929542515426595	0	-0.3237097325130681	0	-0.7739024008790099	0
1.199	0	0	0	2.879221970485129	0	0.2713786354037999	0	0	0	-17.60679649380618	649.62459530917	33.34331166269968	0.893144623259247	0	-0.3237172828841247	0	-0.7858441113820437	0
1.1995	0	0	0	2.882456529532853	0	0.2716422420718734	0	0	0	-17.39361888362969	649.6505282879161	33.32275140202439	0.8933345077662378	0	-0.3237250285075849	0	-0.7978091632817434	0
1.2	0	0	0	2.885662425139181	0	0.2718992871609625	0	0	0	-17.18007089735769	649.6810861413733	33.3036861505289	0.8935239027747176	0	-0.3237329661397701	0	-0.8097992991550423	0
1.2005	0	0	0	2.888839631461615	0	0.2721497693213373	0	0	0	-16.96613464883687	649.7163004714949	33.28608533973212	0.8937128062272356	0	-0.3237410923151897	0	-0.8218162861303299	0
1.201	0	0	0	2.891988122652051	0	0.2723936871825371	0	0	0	-16.75179286275613	649.7562042245883	33.26991805630389	0.8939012163130819	0	-0.3237494032875531	0	-0.8338619134768509	0
1.2015	0	0	0	2.895107872887174	0	0.2726310394190039	0	0	0	-16.53702888810676	649.8008316585762	33.25515308366262	0.8940891314493288	0	-0.3237578950451079	0	-0.8459379905937803	0
1.202	0	0	0	2.898198856359363	0	0.2728618246750734	0	0	0	-16.32182671233488	649.8502183067576	33.24175894323562	0.8942765502794204	0	-0.3237665632803901	0	-0.8580463452250531	0
1.2025	0	0	0	2.901261047262421	0	0.2730860416138695	0	0	0	-16.10617097644718	649.9044009378804	33.22970393545441	0.8944634716634141	0	-0.3237754034099595	0	-0.8701888219188548	0
1.203	0	0	0	2.90429441981933	0	0.273303688905458	0	0	0	-15.89004699136151	649.9634175126488	33.21895618063859	0.8946498946729187	0	-0.3237844105017524	0	-0.8823672806518659	0
1.2035	0	0	0	2.907298948249817	0	0.2735147652235826	0	0	0	-15.67344075554127	650.0273071364996	33.20948365984967	0.8948358185775981	0	-0.323793579367756	0	-0.8945835955383199	0
1.204	0	0	0	2.910274606775915	0	0.2737192692369812	0	0	0	-15.45633897411524	650.0961100087593	33.20125425569631	0.895021242884485	0	-0.3238029044714867	0	-0.9068396535523007	0
1.2045	0	0	0	2.913221369609218	0	0.2739171996340247	0	0	0	-15.23872907930046	650.1698673683894	33.19423579311413	0.8952061672495882	0	-0.323812379975437	0	-0.9191373531459112	0
1.205	0	0	0	2.916139210967742	0	0.2741085551310264	0	0	0	-15.02059925215522	650.2486214362988	33.18839608013222	0.8953905915920868	0	-0.3238219997083024	0	-0.9314786026207007	0
1.2055	0	0	0	2.919028105059069	0	0.2742933344077372	0	0	0	-14.80193844539677	650.332415354642	33.18370294850193	0.8955745159786426	0	-0.3238317572116616	0	-0.9438653182356721	0
1.206	0	0	0	2.921888026085989	0	0.2744715361699212	0	0	0	-14.58273640686917	650.4212931232959	33.18012429412285	0.8957579407104197	0	-0.3238416457388265	0	-0.9562994218812143	0
1.2065	0	0	0	2.924718948213886	0	0.2746431591216222	0	0	0	-14.36298370335172	650.515299533965	33.17762811698678	0.8959408662826172	0	-0.3238516582178727	0	-0.9687828382908078	0
1.207	0	0	0	2.927520845602449	0	0.2748082019682131	0	0	0	-14.14267174421536	650.6144801023175	33.17618256070429	0.8961232934105157	0	-0.3238617873188233	0	-0.9813174916589176	0
1.2075	0	0	0	2.930293692391118	0	0.2749666634153243	0	0	0	-13.9217928042617	650.7188809987615	33.17575595113663	0.8963052230004176	0	-0.3238720254461298	0	-0.9939053017578751	0
1.208	0	0	0	2.933037462689921	0	0.2751185421682734	0	0	0	-13.70034004524995	650.8285489784082	33.17631683422174	0.896486656189416	0	-0.3238823647466648	0	-1.006548179359111	0
1.2085	0	0	0	2.935752130605594	0	0.2752638369321325	0	0	0	-13.47830753541238	650.9435313107658	33.17783401251346	0.896667594329659	0	-0.3238927971584926	0	-1.01924802111518	0
1.209	0	0	0	2.938437670213439	0	0.2754025463991476	0	0	0	-13.25569026635017	651.0638757099703	33.18027658053533	0.8968480390383436	0	-0.3239033143755903	0	-1.032006703897878	0
1.2095	0	0	0	2.94109405556392	0	0.2755346692839917	0	0	0	-13.03248416663444	651.1896302661528	33.18361395850297	0.8970279921503248	0	-0.3239139079159414	0	-1.04482607861545	0
1.21	0	0	0	2.94372126070224	0	0.2756602042827093	0	0	0	-12.80868611166278	651.320843378694	33.18781592439377	0.8972074557474551	0	-0.3239245691526568	0	-1.057707963626696	0
1.2105	0	0	0	2.946319259672271	0	0.2757791501047226	0	0	0	-12.58429392917224	651.4575636921144	33.19285264415614	0.8973864321562621	0	-0.323935289295707	0	-1.070654137916951	0
1.211	0	0	0	2.948888026477967	0	0.2758915054753479	0	0	0	-12.35930640003447	651.5998400351358	33.19869470002149	0.8975649239880904	0	-0.3239460594377541	0	-1.083666334029021	0
1.2115	0	0	0	2.951427535164986	0	0.2759972691086214	0	0	0	-12.13372325417756	651.7477213635781	33.20531311671879	0.8977429341107263	0	-0.3239568706001173	0	-1.096746231035541	0
1.212	0	0	0	2.953937759748813	0	0.2760964397436714	0	0	0	-11.90754516121623	651.9012567075102	33.21267938557625	0.8979204656709222	0	-0.3239677137060041	0	-1.109895447587819	0
1.2125	0	0	0	2.956418674249422	0	0.2761890161336765	0	0	0	-11.68077371608503	652.0604951230353	33.22076548651318	0.8980975220812429	0	-0.3239785796511273	0	-1.123115535284009	0
1.213	0	0	0	2.958870252729936	0	0.2762749970432073	0	0	0	-11.45341141954317	652.2254856489623	33.22954390779651	0.8982741070219333	0	-0.3239894593093214	0	-1.136407972344049	0
1.2135	0	0	0	2.961292469223949	0	0.2763543812398251	0	0	0	-11.22546165382244	652.3962772683482	33.23898766356355	0.8984502244844161	0	-0.3240003435594284	0	-1.149774157896676	0
1.214	0	0	0	2.963685297815984	0	0.2764271675274865	0	0	0	-10.99692865385349	652.5729188748165	33.24907030927778	0.8986258787068522	0	-0.3240112232804663	0	-1.16321540686013	0
1.2145	0	0	0	2.966048712601423	0	0.2764933547020488	0	0	0	-10.76781747449864	652.7554592433394	33.25976595479687	0.8988010742237305	0	-0.3240220894226519	0	-1.176732945527999	0
1.215	0	0	0	2.968382687684159	0	0.2765529415917535	0	0	0	-10.53813395423041	652.9439470050252	33.27104927549625	0.8989758158189377	0	-0.3240329329749739	0	-1.190327907963509	0
1.2155	0	0	0	2.97068719720243	0	0.276605927011038	0	0	0	-10.30788467600718	653.1384306251	33.28289552108802	0.8991501085674078	0	-0.3240437450043279	0	-1.204001333265869	0
1.216	0	0	0	2.972962215328667	0	0.2766523097862735	0	0	0	-10.07707692591818	653.3389583834787	33.29528052251473	0.8993239577941401	0	-0.3240545166938518	0	-1.217754163574944	0
1.2165	0	0	0	2.975207716234493	0	0.2766920887423754	0	0	0	-9.84571865031122	653.5455783566459	33.30818069680127	0.8994973690835879	0	-0.324065239317043	0	-1.231587243031605	0
